<svg xmlns="http://www.w3.org/2000/svg" viewBox="0 0 512 512" width="512" height="512" role="img" aria-label="Siamak Kalhor"><defs><linearGradient id="warm" x1="0" y1="0" x2="1" y2="1"><stop offset="0" stop-color="#ffb454"/><stop offset="1" stop-color="#ff8a7a"/></linearGradient>
<radialGradient id="halo" cx="50%" cy="50%" r="50%"><stop offset="0" stop-color="#ffb454" stop-opacity=".50"/><stop offset=".55" stop-color="#ff8a7a" stop-opacity=".17"/><stop offset="1" stop-color="#ff8a7a" stop-opacity="0"/></radialGradient>
<linearGradient id="sheen" x1="0" y1="0" x2="0" y2="1"><stop offset="0" stop-color="#fff" stop-opacity=".18"/><stop offset=".5" stop-color="#fff" stop-opacity="0"/></linearGradient><clipPath id="m"><circle cx="256" cy="256" r="224"/></clipPath></defs><rect width="512" height="512" fill="#06080c"/><circle cx="256" cy="256" r="251" fill="url(#halo)"/><circle cx="256" cy="256" r="224" fill="url(#warm)"/><circle cx="256" cy="256" r="224" fill="url(#sheen)"/><g clip-path="url(#m)"><g transform="translate(85.8 62.0) scale(0.3151)"><path d="M209.63 1694.37C208.71 1687.08 207.47 1677.62 206.86 1673.35C206.26 1669.08 205.13 1658.31 204.36 1649.42C203.58 1640.52 202.69 1631.95 202.36 1630.36C201.41 1625.69 194.82 1623.13 185.66 1623.86C173.59 1624.83 170.94 1626.80 164.00 1639.96C155.68 1655.74 153.24 1657.83 143.17 1657.81C133.83 1657.79 123.38 1653.37 113.68 1645.35C105.51 1638.58 103.97 1634.48 105.82 1624.38C106.62 1620.01 107.64 1613.81 108.07 1610.61C109.21 1602.29 118.93 1552.56 122.24 1538.16C125.94 1522.08 127.11 1513.83 126.31 1509.57C125.29 1504.13 117.86 1488.35 112.79 1480.86C110.77 1477.87 104.28 1466.16 98.37 1454.85C88.75 1436.39 87.58 1433.39 87.07 1425.74C86.68 1419.96 84.05 1409.89 78.93 1394.57C74.77 1382.12 69.31 1364.89 66.80 1356.28C64.28 1347.67 59.32 1334.28 55.77 1326.52C47.29 1308.02 42.84 1292.24 41.35 1275.51C40.63 1267.41 38.86 1258.11 36.98 1252.58C35.24 1247.47 32.88 1235.84 31.74 1226.75C30.60 1217.66 26.85 1198.58 23.41 1184.35C19.98 1170.12 16.49 1155.29 15.66 1151.40C12.46 1136.42 8.97 1103.52 9.14 1089.91C9.32 1076.18 9.16 1075.31 4.68 1065.33C-0.95 1052.78 -1.00 1051.44 3.78 1039.69C6.64 1032.66 7.77 1027.31 8.43 1017.71C9.27 1005.63 9.67 1004.27 16.86 989.68C24.43 974.30 26.46 966.75 29.07 944.37C30.01 936.24 32.75 917.31 35.70 898.45C36.81 891.33 39.26 879.40 41.13 871.93C43.84 861.15 44.58 854.87 44.76 841.53C44.99 823.53 45.49 821.44 52.38 809.68C54.84 805.49 59.82 794.83 63.45 786.00L70.05 769.95L66.40 759.16C63.34 750.15 62.75 746.27 62.76 735.45C62.79 720.59 63.41 718.50 75.08 694.20C84.65 674.28 85.47 670.12 81.43 662.25C79.39 658.29 78.32 653.55 77.95 646.83C77.42 637.29 77.52 636.90 84.13 623.54C90.21 611.24 91.14 608.18 93.91 591.09C97.79 567.20 101.03 556.58 105.86 551.96C109.53 548.44 121.96 543.31 133.19 540.68C136.36 539.94 140.72 538.52 142.89 537.54C151.79 533.51 167.22 527.81 169.24 527.81C170.44 527.80 175.49 526.36 180.47 524.60C185.45 522.84 191.43 521.39 193.77 521.37C196.10 521.36 200.18 520.43 202.82 519.31C205.47 518.19 211.08 516.70 215.28 516.01C223.33 514.69 226.15 513.52 255.82 499.19C265.96 494.30 274.60 490.30 275.03 490.30C275.46 490.30 277.64 489.46 279.88 488.43C282.12 487.40 289.49 484.47 296.25 481.90C316.03 474.39 325.92 469.14 348.61 454.06C352.03 451.79 371.20 432.55 381.96 420.59C390.89 410.67 390.96 409.92 384.79 391.86C379.40 376.12 375.49 369.58 369.67 366.63C359.06 361.24 343.82 344.85 337.31 331.82C331.31 319.82 316.47 279.40 314.95 270.93C312.48 257.17 303.50 220.83 300.59 212.81C298.78 207.83 296.56 201.71 295.66 199.22C294.76 196.73 293.30 186.21 292.40 175.85L290.78 157.00L296.23 143.51C299.22 136.09 303.32 123.61 305.33 115.78C312.61 87.49 319.37 74.24 334.79 58.04C353.06 38.84 366.07 30.32 390.69 21.47C397.45 19.04 404.68 16.15 406.77 15.06C408.85 13.96 413.80 12.69 417.76 12.23C421.73 11.78 428.17 10.63 432.08 9.69C436.00 8.75 443.54 7.28 448.85 6.42C454.15 5.56 461.67 3.76 465.54 2.43C474.50 -0.66 486.04 -0.67 496.77 2.40C501.39 3.72 508.67 5.23 512.94 5.76C521.42 6.81 524.35 7.99 556.92 23.46C567.72 28.59 569.56 29.04 582.27 29.72C592.33 30.27 596.80 31.06 599.09 32.71C607.47 38.76 611.80 41.17 617.84 43.17C625.27 45.63 629.67 49.73 633.98 58.21C636.82 63.80 636.99 65.86 638.07 109.31C638.84 140.08 638.75 161.53 637.79 176.24C635.94 204.47 636.21 205.00 653.50 206.44C665.81 207.47 677.18 210.54 679.94 213.59C682.73 216.67 681.82 227.68 678.17 234.96C676.79 237.72 673.81 246.28 671.55 254.00C666.77 270.35 663.24 277.69 655.98 286.36C653.08 289.82 650.71 293.19 650.71 293.86C650.71 294.52 651.66 302.75 652.81 312.15C654.25 323.90 654.68 334.29 654.19 345.41C653.09 370.04 651.19 377.87 636.58 418.14C633.11 427.70 633.19 429.76 637.22 434.54C642.95 441.35 659.41 450.97 669.42 453.35C671.53 453.85 675.72 455.39 678.73 456.76C681.74 458.13 684.96 459.25 685.89 459.26C686.82 459.27 690.49 460.71 694.05 462.46C697.61 464.21 701.06 465.66 701.73 465.68C702.93 465.72 705.67 466.92 722.10 474.61C726.86 476.83 731.52 478.66 732.45 478.66C733.39 478.67 735.70 479.48 737.59 480.46C739.47 481.45 743.26 482.96 745.99 483.83C748.73 484.70 752.27 486.23 753.85 487.22C755.44 488.21 760.68 489.86 765.50 490.88C770.31 491.90 776.42 493.64 779.07 494.75C781.71 495.86 785.41 496.77 787.29 496.77C792.17 496.77 825.68 506.69 847.35 514.55C854.11 517.01 862.51 519.83 866.03 520.82C884.37 525.99 890.88 536.92 902.23 581.50C904.04 588.62 907.57 602.30 910.07 611.90C913.41 624.74 914.98 634.33 916.01 648.12C916.95 660.83 919.03 674.18 922.44 689.52C925.22 701.97 928.42 717.11 929.57 723.16C933.02 741.37 944.50 793.19 945.88 796.78C947.19 800.17 947.77 803.12 952.11 828.59C953.44 836.42 955.76 849.81 957.26 858.34C958.76 866.88 960.52 877.36 961.17 881.63C966.22 914.66 970.47 938.83 972.77 947.61C977.73 966.56 980.39 981.11 981.27 994.18C982.10 1006.42 982.56 1008.01 989.80 1023.62C999.90 1045.41 1001.01 1052.39 999.01 1081.30C997.93 1096.85 997.89 1108.97 998.85 1124.84C999.82 1140.79 999.77 1153.40 998.67 1170.76C997.49 1189.32 997.50 1198.03 998.71 1209.57C999.57 1217.76 1000.56 1234.70 1000.91 1247.22C1001.52 1269.39 1001.43 1270.39 997.66 1284.74C994.09 1298.30 993.73 1301.72 993.12 1327.30C992.76 1342.59 991.86 1358.60 991.11 1362.87C986.85 1387.20 985.54 1398.58 984.48 1420.29C983.03 1449.95 980.89 1475.23 979.31 1481.24C976.95 1490.25 974.13 1518.87 974.12 1533.85C974.11 1556.56 973.62 1557.58 955.63 1572.11C952.03 1575.01 952.00 1575.16 951.07 1595.09C950.18 1613.96 949.91 1615.53 946.41 1621.61C937.66 1636.82 935.52 1641.40 934.07 1648.12C931.37 1660.54 916.05 1688.18 906.81 1697.28C903.56 1700.49 900.51 1704.12 900.04 1705.37C899.22 1707.52 881.61 1707.63 555.23 1707.63L211.29 1707.63L209.63 1694.37Z" fill="#05070b"/></g></g><circle cx="256" cy="256" r="224" fill="none" stroke="#ffd9a8" stroke-opacity=".35" stroke-width="2.0"/></svg>